# xmcd CD database file
#
# Track frame offsets:
#	150
#	13034
#	31782
#	48027
#	67506
#	80954
#	97594
#	113575
#	126596
#	144045
#	161387
#	171851
#	186528
#
# Disc length: 2777 seconds
#
# Revision: 1
# Processed by: cddbd v1.4PL0 Copyright (c) Steve Scherf et al.
# Submitted via: CDex 1.50Beta6
#
DISCID=980ad70d
DTITLE=Syd Masters and The Swing Riders - Cowboys On The Moon
DYEAR=2002
DGENRE=Country
TTITLE0=OKLAHOMA BROKE MY HEART
TTITLE1=OLD MILWAUKEE MADE MY TEARDROPS NEW
TTITLE2=COWBOYS ON THE MOON
TTITLE3=MY DOG
TTITLE4=YODEL RODEO
TTITLE5=COW SONGS
TTITLE6=OUT IN THE COUNTRY
TTITLE7=SWING YER SISTER
TTITLE8=IGUESS I WON'T BE DANCIN' TONIGHT
TTITLE9='NEATH THE SHADE OF THE OLD STUCKEYS SIGN
TTITLE10=GALISTEO HIGHWAY
TTITLE11=LOS ALAMOS FLAMES
TTITLE12=DADDY CAN YOU HEAR ME
EXTD=YEAR: 2002
EXTT0=
EXTT1=
EXTT2=
EXTT3=
EXTT4=
EXTT5=
EXTT6=
EXTT7=
EXTT8=
EXTT9=
EXTT10=
EXTT11=
EXTT12=
PLAYORDER=
